<svg xmlns="http://www.w3.org/2000/svg" xmlns:xlink="http://www.w3.org/1999/xlink" version="1.1" width="256" height="256" viewBox="0 0 256 256" xml:space="preserve">
<g style="stroke: none; stroke-width: 0; stroke-dasharray: none; stroke-linecap: butt; stroke-linejoin: miter; stroke-miterlimit: 10; fill: none; fill-rule: nonzero; opacity: 1;" transform="translate(4.681712062256807 4.6817120622567785) scale(2.73 2.73)">
	<path d="M 72.509 14.219 c -6.626 -0.58 -10.58 -0.813 -29.419 -0.813 c -12.673 0 -21.743 0.117 -28.603 1.163 c -9.65 1.397 -13.489 6.86 -13.489 16.626 h 0.003 c 0 15 0.93 24.649 5.813 33.602 C 12.394 75.146 22.51 79.1 34.023 79.1 h 3.603 c 15.117 0 22.443 -7.326 26.513 -13.72 c 1.976 -3.256 3.72 -6.86 4.65 -11.396 l 0.697 -2.907 h 4.187 c 9.303 0 17.326 -7.556 17.326 -17.209 v -1.743 C 90.998 21.312 84.255 15.612 72.509 14.219 z M 51.466 57.299 c -3.14 3.14 -8.253 6.397 -11.743 8.49 c -0.933 0.58 -2.094 0.93 -3.49 0.93 c -1.163 0 -2.21 -0.35 -3.257 -0.93 c -3.487 -2.093 -8.603 -5.349 -11.859 -8.49 c -4.883 -4.653 -8.72 -10.583 -8.72 -17.443 h -0.003 c 0 -7.443 5.35 -14.069 13.49 -14.069 c 4.77 0 8.14 2.44 10.35 5.813 c 2.443 -3.37 5.7 -5.813 10.466 -5.813 c 8.023 0 13.603 6.626 13.603 14.069 C 60.303 46.719 56.466 52.649 51.466 57.299 z M 72.396 42.999 c -1.86 0 -2.906 -1.047 -2.906 -2.443 V 27.42 c 0 -1.397 1.047 -2.443 2.906 -2.443 c 5.93 0 9.186 3.49 9.186 9.07 C 81.583 39.626 78.326 42.999 72.396 42.999 z" style="stroke: none; stroke-width: 1; stroke-dasharray: none; stroke-linecap: butt; stroke-linejoin: miter; stroke-miterlimit: 10; fill: rgb(131,131,131); fill-rule: nonzero; opacity: 1;" transform=" matrix(1 0 0 1 0 0) " stroke-linecap="round"/>
</g>
</svg>