<svg xmlns="http://www.w3.org/2000/svg" xmlns:xlink="http://www.w3.org/1999/xlink" version="1.1" width="256" height="256" viewBox="0 0 256 256" xml:space="preserve">
<g style="stroke: none; stroke-width: 0; stroke-dasharray: none; stroke-linecap: butt; stroke-linejoin: miter; stroke-miterlimit: 10; fill: none; fill-rule: nonzero; opacity: 1;" transform="translate(1.4065934065934016 1.4065934065934016) scale(2.81 2.81)">
	<path d="M 45 90 L 45 90 C 20.147 90 0 69.853 0 45 v 0 C 0 20.147 20.147 0 45 0 h 0 c 24.853 0 45 20.147 45 45 v 0 C 90 69.853 69.853 90 45 90 z" style="stroke: none; stroke-width: 1; stroke-dasharray: none; stroke-linecap: butt; stroke-linejoin: miter; stroke-miterlimit: 10; fill: rgb(17,17,17); fill-rule: nonzero; opacity: 1;" transform=" matrix(1 0 0 1 0 0) " stroke-linecap="round"/>
	<path d="M 63.672 24.897 c -4.418 -0.387 -7.053 -0.542 -19.613 -0.542 c -8.449 0 -14.495 0.078 -19.068 0.775 c -6.433 0.931 -8.993 4.573 -8.993 11.084 H 16 c 0 10 0.62 16.433 3.876 22.402 c 3.72 6.9 10.464 9.535 18.139 9.535 h 2.402 c 10.078 0 14.962 -4.884 17.675 -9.147 c 1.318 -2.171 2.48 -4.573 3.1 -7.597 l 0.465 -1.938 h 2.791 c 6.202 0 11.55 -5.037 11.55 -11.473 v -1.162 C 75.998 29.625 71.503 25.825 63.672 24.897 z M 49.643 53.617 c -2.093 2.094 -5.502 4.264 -7.829 5.66 c -0.622 0.387 -1.396 0.62 -2.326 0.62 c -0.776 0 -1.473 -0.233 -2.171 -0.62 c -2.324 -1.395 -5.735 -3.566 -7.906 -5.66 c -3.255 -3.102 -5.813 -7.055 -5.813 -11.628 h -0.002 c 0 -4.962 3.567 -9.38 8.993 -9.38 c 3.18 0 5.426 1.627 6.9 3.875 c 1.629 -2.247 3.8 -3.875 6.977 -3.875 c 5.349 0 9.069 4.418 9.069 9.38 C 55.534 46.564 52.977 50.517 49.643 53.617 z M 63.597 44.084 c -1.24 0 -1.938 -0.698 -1.938 -1.629 v -8.758 c 0 -0.931 0.698 -1.629 1.938 -1.629 c 3.953 0 6.124 2.327 6.124 6.046 C 69.721 41.835 67.55 44.084 63.597 44.084 z" style="stroke: none; stroke-width: 1; stroke-dasharray: none; stroke-linecap: butt; stroke-linejoin: miter; stroke-miterlimit: 10; fill: rgb(131,131,131); fill-rule: nonzero; opacity: 1;" transform=" matrix(1 0 0 1 0 0) " stroke-linecap="round"/>
</g>
</svg>